# xmcd
# 
# Track frame offsets:
#     150
#     16960
#     32618
#     51188
#     63388
#     76590
#     90140
#     108478
#     125533
#     139480
# 
# Disc length: 2167
# 
# Revision: 11
# Processed by: cddbd v1.5.2PL0 Copyright (c) Steve Scherf et al.
# Submitted via: fre:ac v1.0.31
# 
DISCID=7708750a
DTITLE=Otis Redding - Soul Manifesto - 1964-1970
DYEAR=1967
DGENRE=R&B
TTITLE0=Respect
TTITLE1=I Can't Turn You Loose
TTITLE2=I've Been Loving You Too Long (To Stop Now)
TTITLE3=My Girl
TTITLE4=Shake
TTITLE5=Satisfaction
TTITLE6=Fa-Fa-Fa-Fa-Fa (Sad Song)
TTITLE7=These Arms Of Mine
TTITLE8=Day Tripper
TTITLE9=Try A Little Tenderness
EXTD=
EXTT0=
EXTT1=
EXTT2=
EXTT3=
EXTT4=
EXTT5=
EXTT6=
EXTT7=
EXTT8=
EXTT9=
PLAYORDER=
